<svg xmlns="http://www.w3.org/2000/svg" version="1.1" xmlns:xlink="http://www.w3.org/1999/xlink" xmlns:svgjs="http://svgjs.com/svgjs" width="390" height="844" preserveAspectRatio="none" viewBox="0 0 390 844"><g clip-path="url(&quot;#SvgjsClipPath1036&quot;)" fill="none"><circle r="65" cx="-64.29" cy="-29.44" stroke="#365aa3" stroke-opacity="0.25" stroke-width="2"></circle><circle r="65" cx="267.43" cy="304.59" stroke="#365aa3" stroke-opacity="0.25" stroke-width="2"></circle><circle r="65" cx="554.59" cy="504.38" stroke="#365aa3" stroke-opacity="0.25" stroke-width="2"></circle><circle r="93.025" cx="211.83" cy="701.27" stroke="#365aa3" stroke-opacity="0.25" stroke-width="2"></circle><circle r="106.265" cx="120.82" cy="385.82" stroke="#365aa3" stroke-opacity="0.25" stroke-width="2"></circle><circle r="86.935" cx="86.95" cy="822.59" stroke="#365aa3" stroke-opacity="0.25" stroke-width="2"></circle><circle r="84.65" cx="227.42" cy="506.04" stroke="#365aa3" stroke-opacity="0.25" stroke-width="2"></circle><circle r="39.105" cx="223.84" cy="796.13" stroke="#365aa3" stroke-opacity="0.25" stroke-width="2"></circle><circle r="98.52" cx="322.98" cy="132.28" stroke="#365aa3" stroke-opacity="0.25" stroke-width="2"></circle><circle r="122.845" cx="9.14" cy="277.94" stroke="#365aa3" stroke-opacity="0.25" stroke-width="2"></circle><circle r="35.215" cx="20.05" cy="177.56" stroke="#365aa3" stroke-opacity="0.25" stroke-width="2"></circle><circle r="46.43" cx="219.99" cy="504.24" stroke="#365aa3" stroke-opacity="0.25" stroke-width="2"></circle><circle r="64.2" cx="348.88" cy="386.99" stroke="#365aa3" stroke-opacity="0.25" stroke-width="2"></circle><circle r="91.24" cx="137.94" cy="191.83" stroke="#365aa3" stroke-opacity="0.25" stroke-width="2"></circle><circle r="99.425" cx="252.82" cy="481.71" stroke="#365aa3" stroke-opacity="0.25" stroke-width="2"></circle><circle r="51.745" cx="31.15" cy="47.2" stroke="#365aa3" stroke-opacity="0.25" stroke-width="2"></circle><circle r="91.925" cx="343.81" cy="291.98" stroke="#365aa3" stroke-opacity="0.25" stroke-width="2"></circle><circle r="86.68" cx="145.4" cy="697.64" stroke="#365aa3" stroke-opacity="0.25" stroke-width="2"></circle><circle r="114.195" cx="59.92" cy="576.41" stroke="#365aa3" stroke-opacity="0.25" stroke-width="2"></circle><circle r="83.96" cx="244.7" cy="47.49" stroke="#365aa3" stroke-opacity="0.25" stroke-width="2"></circle><circle r="126.09" cx="150.74" cy="192.69" stroke="#365aa3" stroke-opacity="0.25" stroke-width="2"></circle><circle r="84.665" cx="337.48" cy="141.69" stroke="#365aa3" stroke-opacity="0.25" stroke-width="2"></circle><circle r="80.18" cx="328.95" cy="630.94" stroke="#365aa3" stroke-opacity="0.25" stroke-width="2"></circle><circle r="116.19" cx="186.91" cy="493.1" stroke="#365aa3" stroke-opacity="0.25" stroke-width="2"></circle><circle r="82.5" cx="180.4" cy="391.16" stroke="#365aa3" stroke-opacity="0.25" stroke-width="2"></circle></g><defs><clipPath id="SvgjsClipPath1036"><rect width="390" height="844" x="0" y="0"></rect></clipPath></defs></svg>